<?xml version="1.0" encoding="UTF-8" standalone="no"?>
<!-- Created with Inkscape (http://www.inkscape.org/) -->

<svg
   xmlns:dc="http://purl.org/dc/elements/1.1/"
   xmlns:cc="http://creativecommons.org/ns#"
   xmlns:rdf="http://www.w3.org/1999/02/22-rdf-syntax-ns#"
   xmlns:svg="http://www.w3.org/2000/svg"
   xmlns="http://www.w3.org/2000/svg"
   xmlns:sodipodi="http://sodipodi.sourceforge.net/DTD/sodipodi-0.dtd"
   xmlns:inkscape="http://www.inkscape.org/namespaces/inkscape"
   width="512mm"
   height="512mm"
   viewBox="0 0 512 512"
   version="1.1"
   id="svg1128"
   inkscape:version="0.92.3 (2405546, 2018-03-11)"
   sodipodi:docname="cart.svg">
  <defs
     id="defs1122" />
  <sodipodi:namedview
     id="base"
     pagecolor="#ffffff"
     bordercolor="#666666"
     borderopacity="1.0"
     inkscape:pageopacity="0.0"
     inkscape:pageshadow="2"
     inkscape:zoom="0.36"
     inkscape:cx="396.85039"
     inkscape:cy="1116.8154"
     inkscape:document-units="mm"
     inkscape:current-layer="layer1"
     showgrid="false"
     inkscape:window-width="1853"
     inkscape:window-height="1025"
     inkscape:window-x="67"
     inkscape:window-y="27"
     inkscape:window-maximized="1" />
  <metadata
     id="metadata1125">
    <rdf:RDF>
      <cc:Work
         rdf:about="">
        <dc:format>image/svg+xml</dc:format>
        <dc:type
           rdf:resource="http://purl.org/dc/dcmitype/StillImage" />
        <dc:title></dc:title>
      </cc:Work>
    </rdf:RDF>
  </metadata>
  <g
     inkscape:label="Capa 1"
     inkscape:groupmode="layer"
     id="layer1"
     transform="translate(0,215)">
    <g
       transform="matrix(3.7370099,0,0,-3.7370099,-970.19584,6733.9289)"
       id="g2894">
      <g
         transform="translate(317,1746)"
         id="g20">
        <path
           inkscape:connector-curvature="0"
           id="path22"
           style="fill:#262626;fill-opacity:1;fill-rule:nonzero;stroke:none"
           d="m 0,0 c 0,-3.859 -3.141,-7 -7,-7 -3.859,0 -7,3.141 -7,7 0,3.859 3.141,7 7,7 3.859,0 7,-3.141 7,-7 m 14,7 h 6 V 2 h -6 z m 27,0 c 3.859,0 7,-3.141 7,-7 0,-3.859 -3.141,-7 -7,-7 -3.859,0 -7,3.141 -7,7 0,3.859 3.141,7 7,7 M 67,73 H -5 v 10 c 0,6.065 -4.935,11 -11,11 h -7 c -4.411,0 -8,-3.589 -8,-8 0,-4.411 3.589,-8 8,-8 h 5 v 4 h -5 c -2.206,0 -4,1.794 -4,4 0,2.206 1.794,4 4,4 h 7 c 3.859,0 7,-3.14 7,-7 V 73 71 29 h 4 v 40 h 72 c 2.206,0 4,-1.794 4,-4 V 50 c 0,-1.625 -1.104,-4.09 -2.315,-5.172 L 46.651,25.156 C 45.388,24.027 42.694,23 41,23 H 2 C -4.065,23 -9,18.065 -9,12 V 10.809 C -14.113,9.865 -18,5.382 -18,0 c 0,-6.065 4.935,-11 11,-11 5.382,0 9.865,3.887 10.809,9 h 26.382 c 0.944,-5.113 5.427,-9 10.809,-9 6.065,0 11,4.935 11,11 C 52,6.065 47.065,11 41,11 35.618,11 31.135,7.113 30.191,2 H 24 v 5 h 5 v 4 H 5 V 7 h 5 V 2 H 3.809 C 2.985,6.463 -0.537,9.985 -5,10.809 V 12 c 0,3.859 3.141,7 7,7 h 39 c 2.671,0 6.323,1.394 8.315,3.172 L 71.349,41.845 C 73.431,43.704 75,47.209 75,50 v 15 c 0,4.411 -3.589,8 -8,8" />
      </g>
      <g
         transform="translate(307,1746)"
         id="g24">
        <path
           inkscape:connector-curvature="0"
           id="path26"
           style="fill:#262626;fill-opacity:1;fill-rule:nonzero;stroke:none"
           d="M 0,0 C 0,-1.654 1.346,-3 3,-3 4.654,-3 6,-1.654 6,0 6,1.654 4.654,3 3,3 1.346,3 0,1.654 0,0" />
      </g>
      <g
         transform="translate(358,1743)"
         id="g28">
        <path
           inkscape:connector-curvature="0"
           id="path30"
           style="fill:#262626;fill-opacity:1;fill-rule:nonzero;stroke:none"
           d="M 0,0 C 1.654,0 3,1.346 3,3 3,4.654 1.654,6 0,6 -1.654,6 -3,4.654 -3,3 -3,1.346 -1.654,0 0,0" />
      </g>
      <path
         inkscape:connector-curvature="0"
         id="path32"
         style="fill:#262626;fill-opacity:1;fill-rule:nonzero;stroke:none"
         d="m 300,1811 h -36 v -4 h 36 z" />
      <path
         inkscape:connector-curvature="0"
         id="path34"
         style="fill:#262626;fill-opacity:1;fill-rule:nonzero;stroke:none"
         d="m 300,1795 h -26 v -4 h 26 z" />
      <path
         inkscape:connector-curvature="0"
         id="path36"
         style="fill:#262626;fill-opacity:1;fill-rule:nonzero;stroke:none"
         d="m 300,1779 h -16 v -4 h 16 z" />
      <path
         inkscape:connector-curvature="0"
         id="path38"
         style="fill:#ff4c48;fill-opacity:1;fill-rule:nonzero;stroke:none"
         d="m 330,1775 h -4 v 32 h 4 z" />
      <path
         inkscape:connector-curvature="0"
         id="path40"
         style="fill:#ff4c48;fill-opacity:1;fill-rule:nonzero;stroke:none"
         d="m 346,1775 h -4 v 32 h 4 z" />
      <path
         inkscape:connector-curvature="0"
         id="path42"
         style="fill:#ff4c48;fill-opacity:1;fill-rule:nonzero;stroke:none"
         d="m 360,1780 h -4 v 27 h 4 z" />
      <path
         inkscape:connector-curvature="0"
         id="path44"
         style="fill:#ff4c48;fill-opacity:1;fill-rule:nonzero;stroke:none"
         d="m 374,1790 h -4 v 17 h 4 z" />
      <g
         transform="translate(318,1843)"
         id="g46">
        <path
           inkscape:connector-curvature="0"
           id="path48"
           style="fill:#e0e0e0;fill-opacity:1;fill-rule:nonzero;stroke:none"
           d="m 0,0 c 0,1.1 0.9,2 2,2 h 20 c 1.1,0 2,-0.9 2,-2 V -18 H 0 Z" />
      </g>
      <g
         transform="translate(368,1825)"
         id="g50">
        <path
           inkscape:connector-curvature="0"
           id="path52"
           style="fill:#e0e0e0;fill-opacity:1;fill-rule:nonzero;stroke:none"
           d="m 0,0 h -20 v 8 c 0,1.1 0.9,2 2,2 h 16 c 1.1,0 2,-0.9 2,-2 z" />
      </g>
    </g>
  </g>
</svg>
